<svg width="160" height="56" viewBox="0 0 160 56" fill="none" xmlns="http://www.w3.org/2000/svg">
<path fill-rule="evenodd" clip-rule="evenodd" d="M3.58183 0L3.58183 23.6945L51.9495 20.6716L51.9495 4.03064L3.58183 0ZM46.5753 8.9756V15.6228L8.95601 17.974V5.84066L46.5753 8.9756Z" fill="#FB526B"/>
<path fill-rule="evenodd" clip-rule="evenodd" d="M0 49.4255L48.3676 36.326L48.3676 10.4311L0 19.5L0 49.4255ZM5.37418 42.4022L5.37418 23.9602L42.9935 16.9066L42.9935 32.2137L5.37418 42.4022Z" fill="#FFD029"/>
<path fill-rule="evenodd" clip-rule="evenodd" d="M7.16602 56L55.5336 51.9694V28.4109L7.16602 36.4722L7.16602 56ZM12.5402 50.1593L12.5402 41.0248L50.1595 34.755V47.0244L12.5402 50.1593Z" fill="#50D6FF"/>
<path d="M73.8755 19.3945C72.7994 19.3945 71.8309 19.1695 70.97 18.7195C70.1189 18.2597 69.4488 17.6238 68.9597 16.8118C68.4705 15.9999 68.226 15.0803 68.226 14.0531C68.226 13.0259 68.4705 12.1063 68.9597 11.2943C69.4488 10.4824 70.1189 9.85137 70.97 9.40136C71.8309 8.94157 72.7994 8.71167 73.8755 8.71167C74.8147 8.71167 75.6609 8.87798 76.4142 9.21059C77.1674 9.54321 77.7935 10.0226 78.2925 10.6487L76.4435 12.3215C75.7783 11.5193 74.9712 11.1182 74.0223 11.1182C73.4647 11.1182 72.9657 11.2405 72.5255 11.4851C72.0951 11.7297 71.7576 12.077 71.513 12.527C71.2782 12.9672 71.1608 13.4759 71.1608 14.0531C71.1608 14.6303 71.2782 15.1439 71.513 15.5939C71.7576 16.0341 72.0951 16.3765 72.5255 16.6211C72.9657 16.8656 73.4647 16.9879 74.0223 16.9879C74.9712 16.9879 75.7783 16.5868 76.4435 15.7846L78.2925 17.4575C77.7935 18.0836 77.1674 18.5629 76.4142 18.8956C75.6609 19.2282 74.8147 19.3945 73.8755 19.3945Z" fill="#383646"/>
<path d="M84.553 19.3945C83.4671 19.3945 82.4888 19.1646 81.6181 18.7048C80.7572 18.245 80.0773 17.6091 79.5784 16.7972C79.0893 15.9852 78.8447 15.0705 78.8447 14.0531C78.8447 13.0357 79.0893 12.121 79.5784 11.309C80.0773 10.497 80.7572 9.86115 81.6181 9.40136C82.4888 8.94157 83.4671 8.71167 84.553 8.71167C85.6388 8.71167 86.6122 8.94157 87.4731 9.40136C88.3438 9.86115 89.0237 10.497 89.5128 11.309C90.0118 12.121 90.2612 13.0357 90.2612 14.0531C90.2612 15.0705 90.0118 15.9852 89.5128 16.7972C89.0237 17.6091 88.3438 18.245 87.4731 18.7048C86.6122 19.1646 85.6388 19.3945 84.553 19.3945ZM84.553 16.9879C85.0714 16.9879 85.541 16.8656 85.9617 16.6211C86.3823 16.3765 86.715 16.0341 86.9595 15.5939C87.2041 15.1439 87.3264 14.6303 87.3264 14.0531C87.3264 13.4759 87.2041 12.9672 86.9595 12.527C86.715 12.077 86.3823 11.7297 85.9617 11.4851C85.541 11.2405 85.0714 11.1182 84.553 11.1182C84.0345 11.1182 83.5649 11.2405 83.1442 11.4851C82.7236 11.7297 82.391 12.077 82.1464 12.527C81.9018 12.9672 81.7795 13.4759 81.7795 14.0531C81.7795 14.6303 81.9018 15.1439 82.1464 15.5939C82.391 16.0341 82.7236 16.3765 83.1442 16.6211C83.5649 16.8656 84.0345 16.9879 84.553 16.9879Z" fill="#383646"/>
<path d="M101.057 19.189L101.028 13.7449L98.3864 18.1765H97.095L94.4684 13.8917V19.189H91.783V8.91711H94.1749L97.7847 14.8455L101.307 8.91711H103.698L103.728 19.189H101.057Z" fill="#383646"/>
<path d="M115.058 19.189L115.028 13.7449L112.387 18.1765H111.096L108.469 13.8917V19.189H105.784V8.91711H108.176L111.785 14.8455L115.307 8.91711H117.699L117.728 19.189H115.058Z" fill="#383646"/>
<path d="M128.031 16.9439V19.189H119.784V8.91711H127.84V11.1623H122.66V12.8938H127.224V15.0656H122.66V16.9439H128.031Z" fill="#383646"/>
<path d="M134.134 16.4596H132.549V19.189H129.644V8.91711H134.339C135.269 8.91711 136.076 9.07363 136.761 9.38668C137.445 9.68995 137.974 10.1302 138.345 10.7074C138.717 11.2748 138.903 11.9449 138.903 12.7177C138.903 13.4612 138.727 14.1118 138.375 14.6694C138.032 15.2172 137.538 15.6477 136.893 15.9607L139.108 19.189H135.997L134.134 16.4596ZM135.968 12.7177C135.968 12.2384 135.816 11.8666 135.513 11.6025C135.21 11.3384 134.76 11.2063 134.163 11.2063H132.549V14.2145H134.163C134.76 14.2145 135.21 14.0873 135.513 13.833C135.816 13.5688 135.968 13.1971 135.968 12.7177Z" fill="#383646"/>
<path d="M145.627 19.3945C144.551 19.3945 143.583 19.1695 142.722 18.7195C141.871 18.2597 141.2 17.6238 140.711 16.8118C140.222 15.9999 139.978 15.0803 139.978 14.0531C139.978 13.0259 140.222 12.1063 140.711 11.2943C141.2 10.4824 141.871 9.85137 142.722 9.40136C143.583 8.94157 144.551 8.71167 145.627 8.71167C146.566 8.71167 147.413 8.87798 148.166 9.21059C148.919 9.54321 149.545 10.0226 150.044 10.6487L148.195 12.3215C147.53 11.5193 146.723 11.1182 145.774 11.1182C145.216 11.1182 144.717 11.2405 144.277 11.4851C143.847 11.7297 143.509 12.077 143.265 12.527C143.03 12.9672 142.912 13.4759 142.912 14.0531C142.912 14.6303 143.03 15.1439 143.265 15.5939C143.509 16.0341 143.847 16.3765 144.277 16.6211C144.717 16.8656 145.216 16.9879 145.774 16.9879C146.723 16.9879 147.53 16.5868 148.195 15.7846L150.044 17.4575C149.545 18.0836 148.919 18.5629 148.166 18.8956C147.413 19.2282 146.566 19.3945 145.627 19.3945Z" fill="#383646"/>
<path d="M159.586 16.9439V19.189H151.34V8.91711H159.396V11.1623H154.216V12.8938H158.779V15.0656H154.216V16.9439H159.586Z" fill="#383646"/>
<path d="M75.6364 30.7388H71.2929L70.4858 32.7345H67.5216L72.0559 22.4625H74.9174L79.4664 32.7345H76.4435L75.6364 30.7388ZM74.7853 28.5963L73.4647 25.3093L72.144 28.5963H74.7853Z" fill="#383646"/>
<path d="M90.0631 22.4625V32.7345H87.6712L83.1369 27.261V32.7345H80.2901V22.4625H82.682L87.2163 27.936V22.4625H90.0631Z" fill="#383646"/>
<path d="M98.9948 30.7388H94.6512L93.8441 32.7345H90.8799L95.4143 22.4625H98.2757L102.825 32.7345H99.8018L98.9948 30.7388ZM98.1437 28.5963L96.823 25.3093L95.5023 28.5963H98.1437Z" fill="#383646"/>
<path d="M103.648 22.4625H106.554V30.4306H111.455V32.7345H103.648V22.4625Z" fill="#383646"/>
<path d="M117.062 29.0512V32.7345H114.156V29.0072L110.238 22.4625H113.305L115.741 26.5419L118.177 22.4625H120.994L117.062 29.0512Z" fill="#383646"/>
<path d="M124.805 24.7664H121.65V22.4625H130.851V24.7664H127.71V32.7345H124.805V24.7664Z" fill="#383646"/>
<path d="M131.933 22.4625H134.839V32.7345H131.933V22.4625Z" fill="#383646"/>
<path d="M142.027 32.9399C140.951 32.9399 139.982 32.7149 139.121 32.2649C138.27 31.8051 137.6 31.1692 137.111 30.3572C136.622 29.5453 136.377 28.6257 136.377 27.5985C136.377 26.5713 136.622 25.6517 137.111 24.8397C137.6 24.0278 138.27 23.3968 139.121 22.9468C139.982 22.487 140.951 22.2571 142.027 22.2571C142.966 22.2571 143.812 22.4234 144.566 22.756C145.319 23.0886 145.945 23.568 146.444 24.1941L144.595 25.8669C143.93 25.0647 143.123 24.6637 142.174 24.6637C141.616 24.6637 141.117 24.7859 140.677 25.0305C140.246 25.2751 139.909 25.6224 139.664 26.0724C139.43 26.5126 139.312 27.0213 139.312 27.5985C139.312 28.1757 139.43 28.6893 139.664 29.1393C139.909 29.5795 140.246 29.9219 140.677 30.1665C141.117 30.411 141.616 30.5333 142.174 30.5333C143.123 30.5333 143.93 30.1322 144.595 29.33L146.444 31.0029C145.945 31.629 145.319 32.1084 144.566 32.441C143.812 32.7736 142.966 32.9399 142.027 32.9399Z" fill="#383646"/>
<path d="M151.235 32.9399C150.403 32.9399 149.596 32.8372 148.813 32.6317C148.031 32.4263 147.395 32.1524 146.906 31.81L147.86 29.6676C148.319 29.9708 148.852 30.2154 149.459 30.4013C150.066 30.5871 150.662 30.6801 151.249 30.6801C152.364 30.6801 152.922 30.4013 152.922 29.8436C152.922 29.5502 152.761 29.3349 152.438 29.198C152.125 29.0512 151.616 28.8996 150.912 28.7431C150.139 28.5768 149.493 28.4007 148.975 28.2148C148.456 28.0192 148.011 27.711 147.639 27.2903C147.268 26.8697 147.082 26.3023 147.082 25.5881C147.082 24.962 147.253 24.3995 147.595 23.9006C147.938 23.3919 148.446 22.9908 149.121 22.6973C149.806 22.4038 150.643 22.2571 151.631 22.2571C152.306 22.2571 152.971 22.3353 153.626 22.4919C154.282 22.6386 154.859 22.8587 155.358 23.1522L154.463 25.3093C153.485 24.781 152.536 24.5169 151.616 24.5169C151.039 24.5169 150.618 24.605 150.354 24.781C150.09 24.9474 149.958 25.1675 149.958 25.4414C149.958 25.7153 150.114 25.9207 150.427 26.0577C150.741 26.1947 151.244 26.3365 151.939 26.4833C152.722 26.6496 153.367 26.8305 153.876 27.0262C154.394 27.2121 154.84 27.5153 155.211 27.936C155.593 28.3469 155.784 28.9094 155.784 29.6235C155.784 30.2398 155.612 30.7975 155.27 31.2964C154.928 31.7953 154.414 32.1964 153.729 32.4997C153.044 32.7932 152.213 32.9399 151.235 32.9399Z" fill="#383646"/>
<path d="M70.9407 38.3118H67.7857V36.0079H76.9865V38.3118H73.8462V46.2799H70.9407V38.3118Z" fill="#383646"/>
<path d="M83.1056 46.4853C82.0197 46.4853 81.0414 46.2554 80.1708 45.7956C79.3099 45.3358 78.63 44.7 78.131 43.888C77.6419 43.076 77.3973 42.1613 77.3973 41.1439C77.3973 40.1265 77.6419 39.2118 78.131 38.3998C78.63 37.5879 79.3099 36.952 80.1708 36.4922C81.0414 36.0324 82.0197 35.8025 83.1056 35.8025C84.1915 35.8025 85.1649 36.0324 86.0258 36.4922C86.8964 36.952 87.5763 37.5879 88.0655 38.3998C88.5644 39.2118 88.8139 40.1265 88.8139 41.1439C88.8139 42.1613 88.5644 43.076 88.0655 43.888C87.5763 44.7 86.8964 45.3358 86.0258 45.7956C85.1649 46.2554 84.1915 46.4853 83.1056 46.4853ZM83.1056 44.0787C83.6241 44.0787 84.0937 43.9565 84.5143 43.7119C84.935 43.4673 85.2676 43.1249 85.5122 42.6847C85.7567 42.2347 85.879 41.7211 85.879 41.1439C85.879 40.5667 85.7567 40.058 85.5122 39.6178C85.2676 39.1678 84.935 38.8205 84.5143 38.5759C84.0937 38.3314 83.6241 38.2091 83.1056 38.2091C82.5871 38.2091 82.1175 38.3314 81.6969 38.5759C81.2762 38.8205 80.9436 39.1678 80.699 39.6178C80.4545 40.058 80.3322 40.5667 80.3322 41.1439C80.3322 41.7211 80.4545 42.2347 80.699 42.6847C80.9436 43.1249 81.2762 43.4673 81.6969 43.7119C82.1175 43.9565 82.5871 44.0787 83.1056 44.0787Z" fill="#383646"/>
<path d="M95.5156 46.4853C94.4297 46.4853 93.4514 46.2554 92.5808 45.7956C91.7199 45.3358 91.04 44.7 90.5411 43.888C90.0519 43.076 89.8073 42.1613 89.8073 41.1439C89.8073 40.1265 90.0519 39.2118 90.5411 38.3998C91.04 37.5879 91.7199 36.952 92.5808 36.4922C93.4514 36.0324 94.4297 35.8025 95.5156 35.8025C96.6015 35.8025 97.5749 36.0324 98.4358 36.4922C99.3064 36.952 99.9863 37.5879 100.475 38.3998C100.974 39.2118 101.224 40.1265 101.224 41.1439C101.224 42.1613 100.974 43.076 100.475 43.888C99.9863 44.7 99.3064 45.3358 98.4358 45.7956C97.5749 46.2554 96.6015 46.4853 95.5156 46.4853ZM95.5156 44.0787C96.0341 44.0787 96.5037 43.9565 96.9243 43.7119C97.345 43.4673 97.6776 43.1249 97.9222 42.6847C98.1667 42.2347 98.289 41.7211 98.289 41.1439C98.289 40.5667 98.1667 40.058 97.9222 39.6178C97.6776 39.1678 97.345 38.8205 96.9243 38.5759C96.5037 38.3314 96.0341 38.2091 95.5156 38.2091C94.9971 38.2091 94.5275 38.3314 94.1069 38.5759C93.6862 38.8205 93.3536 39.1678 93.109 39.6178C92.8645 40.058 92.7422 40.5667 92.7422 41.1439C92.7422 41.7211 92.8645 42.2347 93.109 42.6847C93.3536 43.1249 93.6862 43.4673 94.1069 43.7119C94.5275 43.9565 94.9971 44.0787 95.5156 44.0787Z" fill="#383646"/>
<path d="M102.746 36.0079H105.651V43.976H110.552V46.2799H102.746V36.0079Z" fill="#383646"/>
</svg>
