<svg width="40" height="40" viewBox="0 0 40 40" fill="none" xmlns="http://www.w3.org/2000/svg">
<path d="M31.1719 31.1719H8.20312V13.125H31.1719V31.1719ZM26.25 1.64062V4.92188H13.125V1.64062H9.84375V4.92188H8.20312C6.38203 4.92188 4.92188 6.38203 4.92188 8.20312V31.1719C4.92188 32.0421 5.26758 32.8767 5.88293 33.4921C6.49828 34.1074 7.33288 34.4531 8.20312 34.4531H31.1719C32.0421 34.4531 32.8767 34.1074 33.4921 33.4921C34.1074 32.8767 34.4531 32.0421 34.4531 31.1719V8.20312C34.4531 6.38203 32.9766 4.92188 31.1719 4.92188H29.5312V1.64062H26.25ZM27.8906 19.6875H19.6875V27.8906H27.8906V19.6875Z" fill="#212121"/>
</svg>
