<svg width="61" height="61" viewBox="0 0 61 61" fill="none" xmlns="http://www.w3.org/2000/svg">
<path d="M6.85103 57.6111C6.85103 58.5099 6.49447 59.3719 5.8598 60.0074C5.22512 60.643 4.36432 61 3.46675 61C2.56918 61 1.70838 60.643 1.0737 60.0074C0.439024 59.3719 0.0824665 58.5099 0.0824665 57.6111V37.278C0.0824665 36.3792 0.439024 35.5172 1.0737 34.8817C1.70838 34.2461 2.56918 33.8891 3.46675 33.8891C4.36432 33.8891 5.22512 34.2461 5.8598 34.8817C6.49447 35.5172 6.85103 36.3792 6.85103 37.278V57.6111ZM23.7724 57.6111C23.7724 58.5099 23.4159 59.3719 22.7812 60.0074C22.1465 60.643 21.2857 61 20.3882 61C19.4906 61 18.6298 60.643 17.9951 60.0074C17.3604 59.3719 17.0039 58.5099 17.0039 57.6111V27.1114C17.0039 26.2126 17.3604 25.3506 17.9951 24.7151C18.6298 24.0795 19.4906 23.7225 20.3882 23.7225C21.2857 23.7225 22.1465 24.0795 22.7812 24.7151C23.4159 25.3506 23.7724 26.2126 23.7724 27.1114V57.6111ZM40.6939 57.6111C40.6939 58.5099 40.3373 59.3719 39.7026 60.0074C39.068 60.643 38.2071 61 37.3096 61C36.412 61 35.5512 60.643 34.9165 60.0074C34.2819 59.3719 33.9253 58.5099 33.9253 57.6111V30.5002C33.9253 29.6014 34.2819 28.7395 34.9165 28.1039C35.5512 27.4684 36.412 27.1114 37.3096 27.1114C38.2071 27.1114 39.068 27.4684 39.7026 28.1039C40.3373 28.7395 40.6939 29.6014 40.6939 30.5002V57.6111ZM57.6153 57.6111C57.6153 58.5099 57.2587 59.3719 56.6241 60.0074C55.9894 60.643 55.1286 61 54.231 61C53.3334 61 52.4726 60.643 51.8379 60.0074C51.2033 59.3719 50.8467 58.5099 50.8467 57.6111V20.3336C50.8467 19.4348 51.2033 18.5729 51.8379 17.9373C52.4726 17.3018 53.3334 16.9448 54.231 16.9448C55.1286 16.9448 55.9894 17.3018 56.6241 17.9373C57.2587 18.5729 57.6153 19.4348 57.6153 20.3336V57.6111ZM5.58193 26.3658C5.23718 26.6606 4.83681 26.883 4.40458 27.0198C3.97235 27.1567 3.51706 27.2052 3.06575 27.1625C2.61444 27.1198 2.1763 26.9867 1.77733 26.7711C1.37837 26.5556 1.02672 26.262 0.743255 25.9077C0.459789 25.5535 0.250285 25.1458 0.127179 24.7089C0.00407286 24.2721 -0.0301261 23.8149 0.0266129 23.3645C0.083352 22.9141 0.229872 22.4798 0.457476 22.0872C0.68508 21.6946 0.989128 21.3518 1.35157 21.0792L18.273 7.52371C18.7403 7.14904 19.2986 6.90522 19.8907 6.81711C20.4829 6.72899 21.0878 6.79975 21.6437 7.02216L36.9136 13.1357L55.737 0.569764C56.4838 0.07094 57.3979 -0.110396 58.2782 0.0656472C59.1585 0.241691 59.9329 0.760693 60.431 1.50848C60.9292 2.25627 61.1102 3.17158 60.9344 4.05307C60.7586 4.93456 60.2403 5.71001 59.4936 6.20883L39.1879 19.7643C38.731 20.0689 38.207 20.2577 37.661 20.3144C37.1151 20.3711 36.5636 20.2939 36.054 20.0896L20.9601 14.0473L5.58193 26.3692V26.3658Z" fill="#5744D6"/>
</svg>
