<svg width="8" height="8" viewBox="0 0 8 8" fill="none" xmlns="http://www.w3.org/2000/svg">
<path d="M8.00001 4C8.00001 4.69505 7.8189 5.3781 7.47454 5.98183C7.13017 6.58557 6.63443 7.08916 6.03618 7.44297C5.43792 7.79677 4.7578 7.98859 4.06284 7.99951C3.36788 8.01042 2.68207 7.84007 2.073 7.50523L4.00001 4H8.00001Z" fill="#757575"/>
<path d="M2.12211 7.5318C1.50843 7.2055 0.990352 6.72492 0.618953 6.13742C0.247554 5.54993 0.0356474 4.87579 0.00411832 4.18146C-0.0274108 3.48713 0.122525 2.79657 0.43915 2.17783C0.755775 1.55909 1.22816 1.03354 1.80975 0.652954L4 4.00001L2.12211 7.5318Z" fill="#2196F3"/>
<path d="M1.76323 0.683849C2.3748 0.271338 3.08854 0.0359842 3.82552 0.00380703C4.56251 -0.0283702 5.29404 0.143883 5.93924 0.501522C6.58444 0.859161 7.11817 1.38826 7.48142 2.03031C7.84468 2.67236 8.02331 3.40236 7.99756 4.1396L4 4L1.76323 0.683849Z" fill="#FB8C00"/>
</svg>
