<svg viewBox="0 0 2161 567" fill="none" xmlns="http://www.w3.org/2000/svg">
<path opacity="0.5" d="M2159.58 286.289C2159.68 247.823 2129.77 210.966 2075.26 177.271C2020.77 143.594 1941.85 113.169 1844.25 87.5283C1649.05 36.2486 1379.26 4.13281 1081.15 3.34677C783.035 2.56073 513.079 33.2534 317.615 83.503C219.88 108.629 140.797 138.637 86.1343 172.026C31.4435 205.433 1.34128 242.132 1.23985 280.598C1.13843 319.064 31.0467 355.922 85.5605 389.617C140.046 423.294 218.97 453.719 316.572 479.359C511.768 530.639 781.558 562.755 1079.67 563.541C1377.78 564.327 1647.74 533.634 1843.2 483.385C1940.94 458.259 2020.02 428.251 2074.68 394.861C2129.38 361.455 2159.48 324.755 2159.58 286.289Z" stroke="url(#paint0_linear)"/>
<defs>
<linearGradient id="paint0_linear" x1="653.41" y1="142.018" x2="1960.66" y2="2223.63" gradientUnits="userSpaceOnUse">
<stop stop-color="#426EFD"/>
<stop offset="0.354167" stop-color="#8D4DF9"/>
</linearGradient>
</defs>
</svg>
