<svg width="20" height="14" viewBox="0 0 20 14" fill="none" xmlns="http://www.w3.org/2000/svg">
<path d="M10.0002 4.5C9.33712 4.5 8.70124 4.76339 8.23239 5.23223C7.76355 5.70107 7.50016 6.33696 7.50016 7C7.50016 7.66304 7.76355 8.29893 8.23239 8.76777C8.70124 9.23661 9.33712 9.5 10.0002 9.5C10.6632 9.5 11.2991 9.23661 11.7679 8.76777C12.2368 8.29893 12.5002 7.66304 12.5002 7C12.5002 6.33696 12.2368 5.70107 11.7679 5.23223C11.2991 4.76339 10.6632 4.5 10.0002 4.5ZM10.0002 11.1667C8.89509 11.1667 7.83529 10.7277 7.05388 9.94628C6.27248 9.16488 5.8335 8.10507 5.8335 7C5.8335 5.89493 6.27248 4.83512 7.05388 4.05372C7.83529 3.27232 8.89509 2.83333 10.0002 2.83333C11.1052 2.83333 12.165 3.27232 12.9464 4.05372C13.7278 4.83512 14.1668 5.89493 14.1668 7C14.1668 8.10507 13.7278 9.16488 12.9464 9.94628C12.165 10.7277 11.1052 11.1667 10.0002 11.1667ZM10.0002 0.75C5.8335 0.75 2.27516 3.34167 0.833496 7C2.27516 10.6583 5.8335 13.25 10.0002 13.25C14.1668 13.25 17.7252 10.6583 19.1668 7C17.7252 3.34167 14.1668 0.75 10.0002 0.75Z" fill="#424242"/>
</svg>
