<svg width="481" height="78" viewBox="0 0 481 78" fill="none" xmlns="http://www.w3.org/2000/svg">
<path d="M85.2624 53.4553H62V13.6267H85.2624V20.5463H70.5646V29.2912H84.2402V36.2108H70.5646V46.4812H85.2624V53.4553Z" fill="#3D2F9E"/>
<path d="M105.596 54.0001C95.9819 54.0001 91.1747 48.7968 91.1747 38.3902C91.1747 33.2141 92.4824 29.2639 95.0979 26.5397C97.7133 23.7972 101.461 22.426 106.342 22.426C109.915 22.426 113.12 23.1162 115.957 24.4965L113.47 30.9257C112.144 30.399 110.91 29.9722 109.768 29.6453C108.626 29.3002 107.484 29.1277 106.342 29.1277C101.959 29.1277 99.7669 32.197 99.7669 38.3357C99.7669 44.2927 101.959 47.2712 106.342 47.2712C107.963 47.2712 109.464 47.0624 110.846 46.6446C112.227 46.2088 113.608 45.5368 114.99 44.6287V51.739C113.627 52.5926 112.245 53.1828 110.846 53.5098C109.464 53.8367 107.714 54.0001 105.596 54.0001Z" fill="#3D2F9E"/>
<path d="M128.886 38.1722C128.886 41.1871 129.384 43.4663 130.378 45.0101C131.391 46.5538 133.031 47.3257 135.296 47.3257C137.543 47.3257 139.155 46.5629 140.131 45.0373C141.125 43.4936 141.623 41.2052 141.623 38.1722C141.623 35.1574 141.125 32.8962 140.131 31.3888C139.136 29.8814 137.506 29.1277 135.241 29.1277C132.994 29.1277 131.373 29.8814 130.378 31.3888C129.384 32.8781 128.886 35.1392 128.886 38.1722ZM150.243 38.1722C150.243 43.1304 148.916 47.0079 146.264 49.8048C143.612 52.6017 139.919 54.0001 135.185 54.0001C132.22 54.0001 129.605 53.3645 127.339 52.0931C125.074 50.8037 123.333 48.9603 122.118 46.5629C120.902 44.1656 120.294 41.3687 120.294 38.1722C120.294 33.1959 121.611 29.3275 124.245 26.5669C126.879 23.8063 130.581 22.426 135.351 22.426C138.317 22.426 140.932 23.0617 143.197 24.333C145.463 25.6043 147.203 27.4296 148.419 29.8088C149.635 32.1879 150.243 34.9758 150.243 38.1722Z" fill="#3D2F9E"/>
<path d="M184.86 53.4553H176.433V35.6659C176.433 33.4683 176.056 31.8247 175.301 30.735C174.564 29.6271 173.394 29.0732 171.792 29.0732C169.637 29.0732 168.072 29.8542 167.095 31.4161C166.119 32.978 165.631 35.5479 165.631 39.1257V53.4553H157.205V22.9981H163.642L164.775 26.8938H165.244C166.073 25.4954 167.27 24.4057 168.836 23.6247C170.401 22.8256 172.197 22.426 174.223 22.426C178.846 22.426 181.977 23.9153 183.617 26.8938H184.363C185.191 25.4772 186.407 24.3784 188.009 23.5975C189.63 22.8165 191.454 22.426 193.48 22.426C196.979 22.426 199.622 23.316 201.409 25.0958C203.214 26.8575 204.116 29.6907 204.116 33.5955V53.4553H195.662V35.6659C195.662 33.4683 195.285 31.8247 194.53 30.735C193.793 29.6271 192.623 29.0732 191.021 29.0732C188.958 29.0732 187.411 29.7997 186.379 31.2526C185.366 32.7055 184.86 35.0121 184.86 38.1722V53.4553Z" fill="#3D2F9E"/>
<path d="M240.447 53.4553H232.02V35.6659C232.02 33.4683 231.643 31.8247 230.887 30.735C230.151 29.6271 228.981 29.0732 227.379 29.0732C225.224 29.0732 223.658 29.8542 222.682 31.4161C221.706 32.978 221.218 35.5479 221.218 39.1257V53.4553H212.791V22.9981H219.229L220.361 26.8938H220.831C221.66 25.4954 222.857 24.4057 224.423 23.6247C225.988 22.8256 227.784 22.426 229.81 22.426C234.433 22.426 237.564 23.9153 239.203 26.8938H239.949C240.778 25.4772 241.994 24.3784 243.596 23.5975C245.217 22.8165 247.04 22.426 249.066 22.426C252.566 22.426 255.209 23.316 256.996 25.0958C258.801 26.8575 259.703 29.6907 259.703 33.5955V53.4553H251.249V35.6659C251.249 33.4683 250.871 31.8247 250.116 30.735C249.38 29.6271 248.21 29.0732 246.608 29.0732C244.545 29.0732 242.998 29.7997 241.966 31.2526C240.953 32.7055 240.447 35.0121 240.447 38.1722V53.4553Z" fill="#3D2F9E"/>
<path d="M321.202 53.4553V34.0314C321.202 31.1436 320.631 29.0369 319.489 27.7111C318.347 26.3853 316.597 25.7224 314.24 25.7224C311.164 25.7224 308.889 26.5578 307.416 28.2287C305.942 29.8996 305.206 32.5239 305.206 36.1018V53.4553H302.415V33.2141C302.415 28.2196 300.095 25.7224 295.453 25.7224C292.304 25.7224 290.01 26.6305 288.574 28.4466C287.137 30.2446 286.419 33.1323 286.419 37.1098V53.4553H283.684V23.8426H285.949L286.529 27.9018H286.695C287.524 26.4307 288.703 25.2956 290.232 24.4965C291.76 23.6792 293.446 23.2706 295.287 23.2706C300.021 23.2706 303.06 25.0232 304.404 28.5284H304.515C305.491 26.8393 306.799 25.5408 308.438 24.6327C310.096 23.7246 311.974 23.2706 314.074 23.2706C317.353 23.2706 319.811 24.1332 321.451 25.8586C323.09 27.584 323.91 30.3264 323.91 34.0858V53.4553H321.202Z" fill="#3D2F9E"/>
<path d="M358.472 38.6081C358.472 43.4391 357.284 47.2167 354.908 49.941C352.532 52.6471 349.253 54.0001 345.072 54.0001C342.438 54.0001 340.118 53.3735 338.11 52.1204C336.103 50.8672 334.565 49.0692 333.496 46.7264C332.428 44.3835 331.894 41.6774 331.894 38.6081C331.894 33.7771 333.082 30.0176 335.458 27.3297C337.834 24.6236 341.094 23.2706 345.238 23.2706C349.364 23.2706 352.596 24.6418 354.935 27.3842C357.293 30.1084 358.472 33.8497 358.472 38.6081ZM334.767 38.6081C334.767 42.6763 335.67 45.8546 337.475 48.143C339.298 50.4132 341.867 51.5483 345.183 51.5483C348.498 51.5483 351.058 50.4132 352.863 48.143C354.687 45.8546 355.598 42.6763 355.598 38.6081C355.598 34.5217 354.677 31.3525 352.836 29.1005C351.012 26.8484 348.443 25.7224 345.128 25.7224C341.812 25.7224 339.252 26.8484 337.447 29.1005C335.66 31.3343 334.767 34.5036 334.767 38.6081Z" fill="#3D2F9E"/>
<path d="M387.729 53.4553V34.2493C387.729 31.2708 387.094 29.1095 385.823 27.7656C384.552 26.4034 382.581 25.7224 379.911 25.7224C376.319 25.7224 373.685 26.6214 372.009 28.4194C370.352 30.1992 369.523 33.096 369.523 37.1098V53.4553H366.788V23.8426H369.108L369.633 27.9018H369.799C371.751 24.8143 375.223 23.2706 380.215 23.2706C387.029 23.2706 390.437 26.8756 390.437 34.0858V53.4553H387.729Z" fill="#3D2F9E"/>
<path d="M402.897 53.4553H400.162V23.8426H402.897V53.4553ZM399.775 15.6154C399.775 13.8719 400.355 13.0001 401.515 13.0001C402.086 13.0001 402.528 13.2271 402.842 13.6812C403.173 14.1352 403.339 14.78 403.339 15.6154C403.339 16.4327 403.173 17.0774 402.842 17.5496C402.528 18.0218 402.086 18.2579 401.515 18.2579C400.355 18.2579 399.775 17.3771 399.775 15.6154Z" fill="#3D2F9E"/>
<path d="M420.91 51.6028C422.641 51.6028 424.152 51.4575 425.441 51.1669V53.3463C424.115 53.7822 422.586 54.0001 420.855 54.0001C418.202 54.0001 416.241 53.3009 414.97 51.9024C413.718 50.504 413.091 48.3064 413.091 45.3098V26.1855H408.643V24.6054L413.091 23.3795L414.473 16.6779H415.882V23.8426H424.695V26.1855H415.882V44.9284C415.882 47.1986 416.287 48.8785 417.097 49.9682C417.908 51.0579 419.179 51.6028 420.91 51.6028Z" fill="#3D2F9E"/>
<path d="M456.771 38.6081C456.771 43.4391 455.583 47.2167 453.207 49.941C450.831 52.6471 447.552 54.0001 443.371 54.0001C440.737 54.0001 438.417 53.3735 436.409 52.1204C434.401 50.8672 432.864 49.0692 431.795 46.7264C430.727 44.3835 430.193 41.6774 430.193 38.6081C430.193 33.7771 431.381 30.0176 433.757 27.3297C436.133 24.6236 439.393 23.2706 443.537 23.2706C447.663 23.2706 450.895 24.6418 453.234 27.3842C455.592 30.1084 456.771 33.8497 456.771 38.6081ZM433.066 38.6081C433.066 42.6763 433.969 45.8546 435.774 48.143C437.597 50.4132 440.166 51.5483 443.482 51.5483C446.797 51.5483 449.357 50.4132 451.162 48.143C452.986 45.8546 453.897 42.6763 453.897 38.6081C453.897 34.5217 452.976 31.3525 451.135 29.1005C449.311 26.8484 446.742 25.7224 443.426 25.7224C440.111 25.7224 437.551 26.8484 435.746 29.1005C433.959 31.3343 433.066 34.5036 433.066 38.6081Z" fill="#3D2F9E"/>
<path d="M476.911 23.2706C478.182 23.2706 479.545 23.3977 481 23.6519L480.475 26.24C479.223 25.9312 477.924 25.7769 476.58 25.7769C474.019 25.7769 471.92 26.8484 470.28 28.9915C468.641 31.1346 467.822 33.8407 467.822 37.1098V53.4553H465.087V23.8426H467.407L467.684 29.1822H467.877C469.111 27.0028 470.428 25.4772 471.828 24.6054C473.227 23.7155 474.922 23.2706 476.911 23.2706Z" fill="#3D2F9E"/>
<path fill-rule="evenodd" clip-rule="evenodd" d="M11.4053 19.957C8.79621 17.3478 4.56597 17.3478 1.95685 19.957C-0.652283 22.5661 -0.652281 26.7963 1.95685 29.4055L20.1593 47.6079L1.95716 65.81C-0.651966 68.4191 -0.651968 72.6494 1.95716 75.2585C4.56629 77.8676 8.79652 77.8676 11.4057 75.2585L34.1172 52.5469C35.4777 51.1864 36.1288 49.3852 36.0705 47.6028C36.1261 45.8237 35.4749 44.0265 34.1169 42.6686L11.4053 19.957Z" fill="#FF9B3F"/>
<g filter="url(#filter0_b)">
<path fill-rule="evenodd" clip-rule="evenodd" d="M12.3312 1.95685C9.72212 -0.652282 5.49188 -0.652282 2.88276 1.95685C0.273624 4.56598 0.273628 8.79621 2.88276 11.4053L20.9678 29.4904L2.88307 47.5752C0.273941 50.1843 0.273941 54.4145 2.88307 57.0237C5.4922 59.6328 9.72243 59.6328 12.3316 57.0237L35.0432 34.3121C36.3753 32.9799 37.0273 31.2252 36.9991 29.4795C37.0216 27.7408 36.3695 25.9951 35.0428 24.6684L12.3312 1.95685Z" fill="#5744D6" fill-opacity="0.6"/>
</g>
<defs>
<filter id="filter0_b" x="-3.07422" y="-4" width="44.0741" height="66.9805" filterUnits="userSpaceOnUse" color-interpolation-filters="sRGB">
<feFlood flood-opacity="0" result="BackgroundImageFix"/>
<feGaussianBlur in="BackgroundImage" stdDeviation="2"/>
<feComposite in2="SourceAlpha" operator="in" result="effect1_backgroundBlur"/>
<feBlend mode="normal" in="SourceGraphic" in2="effect1_backgroundBlur" result="shape"/>
</filter>
</defs>
</svg>
