<svg width="70" height="67" viewBox="0 0 70 67" fill="none" xmlns="http://www.w3.org/2000/svg">
<path d="M14.5537 38.9271C16.5702 41.0313 19.1127 42.6094 22.006 43.5739V25.0746C22.006 24.6363 21.6553 24.2856 21.2169 24.2856H15.4304C14.9921 24.2856 14.6414 24.6363 14.6414 25.0746V38.9271H14.5537Z" fill="#5744D6"/>
<path d="M24.4609 44.2753C25.6884 44.5383 26.9158 44.626 28.1432 44.626C29.3707 44.626 30.6858 44.5383 31.8255 44.2753V31.3872C31.8255 30.9488 31.4748 30.5981 31.0365 30.5981H25.25C24.8116 30.5981 24.4609 30.9488 24.4609 31.3872V44.2753Z" fill="#5744D6"/>
<path d="M34.3682 43.574C37.2614 42.6096 39.8039 40.9438 41.8204 38.9273V18.587C41.8204 18.1486 41.4697 17.7979 41.0314 17.7979H35.2449C34.8065 17.7979 34.4558 18.1486 34.4558 18.587V43.574H34.3682Z" fill="#5744D6"/>
<path d="M66.5444 55.2345L51.0262 42.9602C54.3578 38.4888 56.3743 33.053 56.3743 27.0912C56.3743 12.099 43.7492 0 28.231 0C12.7127 0 0 12.1867 0 27.1789C0 42.1711 12.625 54.2701 28.1433 54.2701C34.2805 54.2701 39.8916 52.429 44.5383 49.185L57.3387 64.6156C57.6017 64.9663 57.9524 65.317 58.3031 65.58C61.1963 67.8596 65.317 67.3335 67.5965 64.4403C69.8761 61.547 69.35 57.514 66.5444 55.2345ZM41.8204 42.1711C39.8916 43.7492 37.6121 45.0644 35.0695 45.8534C32.8777 46.5548 30.5982 46.9932 28.1433 46.9932C25.9515 46.9932 23.8473 46.6425 21.9185 46.1164C19.1129 45.3274 16.658 43.9246 14.4662 42.1711C10.0825 38.4888 7.27693 33.1407 7.27693 27.1789C7.27693 16.2197 16.658 7.3646 28.1433 7.3646C39.6286 7.3646 49.0097 16.2197 49.0097 27.1789C49.0097 33.1407 46.2041 38.5765 41.8204 42.1711Z" fill="#5744D6"/>
</svg>
