<svg width="35" height="42" viewBox="0 0 35 42" fill="none" xmlns="http://www.w3.org/2000/svg">
<path d="M33.0621 14.5768V19.8727H35V29.5206H32.9446V36.5992H30.8893V42H10.0419V38.4345H8.22148V34.764H6.16611V31.1985H4.11074V27.633H2.05537V24.0674H0V19.9775H2.17282V17.985H6.75336V19.8202H8.33893V1.83521H10.1594V0H14.7399V1.88764H16.7953V10.8015H20.7886V12.6367H22.3154V10.8015H26.896V12.6367H31.0067V14.5768H33.0621Z" fill="white"/>
<path d="M33.0621 19.8727V14.5768H31.0067V12.6367H26.896V10.8015H22.3154V12.6367H20.7886V10.8015H16.7953V1.88764H14.7399V0H10.1594V1.83521H8.33893V19.8202H6.75336V17.985H2.17282V19.9775H0V24.0674H2.05537V27.633H4.11074V31.1985H6.16611V34.764H8.22148V38.4345H10.0419V42H30.8893V36.5992H32.9446V29.5206H35V19.8727H33.0621ZM32.4748 28.9963H30.4195V36.0749H28.3641V39.588H12.802V37.9101H10.9815V34.3446H8.92617V30.779H6.87081V27.2135H4.69799V23.6479H2.64262V20.4494H6.16611V22.3895H8.33893V25.9551H10.9815V2.41198H14.1527V18.5618H16.7953V13.161H20.2601V18.5618H22.9027V13.161H26.3087V18.5618H28.9513V15.1011H30.302V20.5019H32.3574V28.9963H32.4748Z" fill="black"/>
</svg>
