<svg width="59" height="66" viewBox="0 0 59 66" fill="none" xmlns="http://www.w3.org/2000/svg">
<path d="M58.7922 47.2526L41.2823 11.4661C40.9953 10.8752 40.4919 10.4175 39.8764 10.188L18.9157 2.08486C18.2603 1.81776 17.5263 1.81776 16.8708 2.08486C16.5563 2.23621 16.2761 2.45037 16.0475 2.71414C15.8188 2.97792 15.6467 3.28572 15.5416 3.61857L15.107 5.0756L12.0396 1.95705C11.4641 1.38825 10.7814 0.939424 10.031 0.636646C9.28067 0.333867 8.47763 0.183165 7.66854 0.193288C6.44553 0.179971 5.24644 0.532529 4.22527 1.20569C3.20409 1.87886 2.40743 2.84189 1.9376 3.97114C1.46777 5.1004 1.3462 6.34431 1.58851 7.54316C1.83082 8.74201 2.42595 9.84106 3.29747 10.6992L6.90169 14.329L0.690169 20.9495C0.248805 21.4209 0.00223023 22.0419 0 22.6877V62.5897C0 63.2676 0.269312 63.9178 0.748689 64.3972C1.22807 64.8766 1.87824 65.1459 2.55618 65.1459H33.2304C33.9083 65.1459 34.5585 64.8766 35.0379 64.3972C35.5172 63.9178 35.7865 63.2676 35.7865 62.5897V61.2094L57.5652 50.6012C58.1757 50.3075 58.6446 49.7834 58.8689 49.1442C59.0671 48.5243 59.0399 47.8544 58.7922 47.2526ZM6.90169 7.09498C6.75338 6.94689 6.65287 6.75772 6.61316 6.55193C6.57345 6.34613 6.59635 6.13316 6.67892 5.94052C6.76148 5.74787 6.89991 5.5844 7.07632 5.47123C7.25273 5.35806 7.45902 5.30039 7.66854 5.30565C7.93998 5.35125 8.1952 5.46566 8.40984 5.63796L11.8096 9.11436L10.4292 10.5969L6.90169 7.09498ZM30.6742 60.0335H5.11236V23.7102L10.5315 17.9332L13.0877 20.4894C12.9391 20.8766 12.8362 21.2798 12.7809 21.6908C12.7809 22.7019 13.0807 23.6903 13.6425 24.5311C14.2043 25.3718 15.0027 26.027 15.9369 26.414C16.871 26.8009 17.8989 26.9022 18.8906 26.7049C19.8823 26.5077 20.7933 26.0207 21.5083 25.3058C22.2232 24.5908 22.7101 23.6799 22.9074 22.6882C23.1047 21.6965 23.0034 20.6685 22.6165 19.7344C22.2295 18.8002 21.5743 18.0018 20.7335 17.44C19.8928 16.8783 18.9044 16.5784 17.8933 16.5784C17.453 16.5841 17.0151 16.6442 16.5896 16.7573L14.0334 14.2012L17.8933 10.0857L30.6742 23.7102V60.0335ZM35.7865 55.5346V22.6877C35.7843 22.0419 35.5377 21.4209 35.0964 20.9495L24.5649 9.70229L37.0902 14.4568L53.0152 47.2526L35.7865 55.5346Z" fill="#5744D6"/>
</svg>
