<svg width="24" height="24" viewBox="0 0 24 24" fill="none" xmlns="http://www.w3.org/2000/svg">
<path fill-rule="evenodd" clip-rule="evenodd" d="M11.9907 0C5.37001 0 0 5.3801 0 12C0 18.6199 5.37085 24 11.9907 24C18.4631 23.9699 24.0041 18.9903 24 12C24 5.37927 18.6115 0 11.9907 0ZM11.9907 1.48262C17.81 1.48262 22.5174 6.18068 22.5174 12C22.5174 14.6074 21.5717 16.986 20.0062 18.8201C18.9093 16.854 17.1131 15.3339 14.956 14.5946C16.1872 13.6832 16.9946 12.2265 16.9946 10.5822C16.9946 7.82938 14.7436 5.58765 11.9907 5.58765C9.2466 5.58765 6.99612 7.82718 6.99612 10.5822C6.99612 12.2263 7.80469 13.6835 9.03474 14.5946C6.87716 15.3326 5.08665 16.8538 3.99381 18.8201C2.43079 16.9861 1.48262 14.6077 1.48262 12C1.48262 6.17985 6.17143 1.48262 11.9907 1.48262ZM11.9907 7.07027C13.9449 7.07027 15.512 8.62806 15.512 10.5822C15.512 12.5364 13.9449 14.0942 11.9907 14.0942C10.0489 14.0942 8.47875 12.5342 8.47875 10.5822C8.47875 8.63026 10.0489 7.07027 11.9907 7.07027ZM18.9128 19.9228C17.064 21.5346 14.6434 22.5174 11.9907 22.5174C9.34063 22.5174 6.93296 21.5317 5.08728 19.9228C8.3763 13.8631 16.0434 14.4766 18.9128 19.9228Z" fill="#424242"/>
</svg>
