<svg width="40" height="40" viewBox="0 0 40 40" fill="none" xmlns="http://www.w3.org/2000/svg">
<path d="M20 25.4297C18.4771 25.4297 17.0166 24.8247 15.9397 23.7478C14.8628 22.671 14.2578 21.2104 14.2578 19.6875C14.2578 18.1646 14.8628 16.704 15.9397 15.6272C17.0166 14.5503 18.4771 13.9453 20 13.9453C21.5229 13.9453 22.9835 14.5503 24.0604 15.6272C25.1372 16.704 25.7422 18.1646 25.7422 19.6875C25.7422 21.2104 25.1372 22.671 24.0604 23.7478C22.9835 24.8247 21.5229 25.4297 20 25.4297V25.4297ZM32.1899 21.2789C32.2555 20.7539 32.3047 20.2289 32.3047 19.6875C32.3047 19.1461 32.2555 18.6047 32.1899 18.0469L35.6516 15.3727C35.9633 15.1266 36.0453 14.6836 35.8485 14.3227L32.5672 8.64609C32.3703 8.28516 31.9274 8.1375 31.5664 8.28516L27.4813 9.92578C26.6281 9.28594 25.7422 8.72813 24.7086 8.31797L24.1016 3.97031C24.036 3.57656 23.6914 3.28125 23.2813 3.28125H16.7188C16.3086 3.28125 15.9641 3.57656 15.8985 3.97031L15.2914 8.31797C14.2578 8.72813 13.3719 9.28594 12.5188 9.92578L8.43362 8.28516C8.07268 8.1375 7.62971 8.28516 7.43284 8.64609L4.15159 14.3227C3.93831 14.6836 4.03675 15.1266 4.34846 15.3727L7.81018 18.0469C7.74456 18.6047 7.69534 19.1461 7.69534 19.6875C7.69534 20.2289 7.74456 20.7539 7.81018 21.2789L4.34846 24.0023C4.03675 24.2484 3.93831 24.6914 4.15159 25.0523L7.43284 30.7289C7.62971 31.0898 8.07268 31.2211 8.43362 31.0898L12.5188 29.4328C13.3719 30.0891 14.2578 30.6469 15.2914 31.057L15.8985 35.4047C15.9641 35.7984 16.3086 36.0938 16.7188 36.0938H23.2813C23.6914 36.0938 24.036 35.7984 24.1016 35.4047L24.7086 31.057C25.7422 30.6305 26.6281 30.0891 27.4813 29.4328L31.5664 31.0898C31.9274 31.2211 32.3703 31.0898 32.5672 30.7289L35.8485 25.0523C36.0453 24.6914 35.9633 24.2484 35.6516 24.0023L32.1899 21.2789Z" fill="#212121"/>
</svg>
